<?xml version="1.0" encoding="iso-8859-1"?>
<!-- Generator: Adobe Illustrator 27.2.0, SVG Export Plug-In . SVG Version: 6.00 Build 0)  -->
<svg version="1.1" id="Capa_1" xmlns="http://www.w3.org/2000/svg" xmlns:xlink="http://www.w3.org/1999/xlink" x="0px" y="0px"
	 viewBox="0 0 510.004 510.004" style="enable-background:new 0 0 510.004 510.004;" xml:space="preserve">
<g>
	<g>
		<g>
			<g>
				<polygon style="fill:#D2DCFD;" points="301.333,90.144 419.871,208.681 256.442,253.572 				"/>
			</g>
			<g>
				
					<rect x="386.944" y="38.97" transform="matrix(0.7071 -0.7071 0.7071 0.7071 79.9117 331.8599)" style="fill:#FD6050;" width="107.204" height="60.996"/>
			</g>
		</g>
		<g>
			<g>
				<rect x="195.416" y="408.506" style="fill:#D46B5C;" width="185.402" height="91.494"/>
			</g>
			<g>
				<rect x="10.014" y="408.506" style="fill:#B55348;" width="185.402" height="91.494"/>
			</g>
			<g>
				<rect x="10.014" y="225.519" style="fill:#D46B5C;" width="185.402" height="91.494"/>
			</g>
			<g>
				<rect x="102.715" y="317.013" style="fill:#D46B5C;" width="185.402" height="91.494"/>
			</g>
			<g>
				<rect x="288.117" y="317.013" style="fill:#B55348;" width="185.402" height="91.494"/>
			</g>
		</g>
	</g>
	<g>
		<path style="fill:#052A75;" d="M507.085,46.059l-43.131-43.13c-3.906-3.905-10.236-3.905-14.143,0l-75.805,75.805
			c-3.905,3.905-3.905,10.237,0,14.143l14.494,14.494l-27.899,27.899l-52.197-52.197c-5.161-5.394-14.903-2.859-16.714,4.423
			c0,0-44.892,163.428-44.892,163.428c-0.952,3.467,0.03,7.178,2.572,9.72c2.544,2.552,6.293,3.52,9.72,2.572
			c0,0,163.429-44.892,163.429-44.892c7.242-1.816,9.854-11.541,4.423-16.714c0,0-52.197-52.198-52.197-52.198l27.9-27.899
			c0,0,14.494,14.494,14.494,14.494c1.876,1.875,4.419,2.929,7.071,2.929c2.652,0,5.195-1.054,7.071-2.929l75.805-75.805
			C510.955,56.481,510.961,49.781,507.085,46.059z M400.64,203.593l-129.9,35.682l35.682-129.9l40.038,40.038l-16.404,16.404
			c-3.906,3.904-3.907,10.236-0.003,14.142c3.903,3.907,10.236,3.907,14.142,0.003c0,0,16.408-16.408,16.408-16.408L400.64,203.593z
			 M424.209,114.794c-7.227-7.227-21.764-21.764-28.988-28.989l61.662-61.663l28.988,28.988L424.209,114.794z"/>
		<path style="fill:#052A75;" d="M473.519,307.012c-56.682,0-213.763,0-268.103,0v-81.494c0-5.523-4.477-10-10-10H10.014
			c-5.523,0-10,4.477-10,10v91.494c0,5.523,4.477,10,10,10h82.701v71.494H10.014c-5.523,0-10,4.477-10,10c0,0,0,91.494,0,91.494
			c0,5.523,4.477,10,10,10c92.403-0.018,278.419,0.013,370.804,0c5.522,0,10-4.477,10-10v-81.494h82.701c5.522,0,10-4.477,10-10
			v-91.494C483.519,311.49,479.041,307.012,473.519,307.012z M20.014,235.519h165.402v71.494c-41.226,0-124.186,0-165.402,0V235.519
			z M112.715,327.012c41.226,0,124.186,0,165.401,0v71.494c-41.226,0-124.186,0-165.401,0V327.012z M20.014,418.507
			c41.226,0,124.186,0,165.402,0V490H20.014V418.507z M370.818,490H205.416v-71.494c41.226,0,124.186,0,165.402,0V490z
			 M463.519,398.507c-41.226,0-124.187,0-165.402,0v-71.494h165.402V398.507z"/>
	</g>
</g>
<g>
</g>
<g>
</g>
<g>
</g>
<g>
</g>
<g>
</g>
<g>
</g>
<g>
</g>
<g>
</g>
<g>
</g>
<g>
</g>
<g>
</g>
<g>
</g>
<g>
</g>
<g>
</g>
<g>
</g>
</svg>
