<?xml version="1.0" encoding="iso-8859-1"?>
<!-- Generator: Adobe Illustrator 27.0.0, SVG Export Plug-In . SVG Version: 6.00 Build 0)  -->
<svg version="1.1" id="Capa_1" xmlns="http://www.w3.org/2000/svg" xmlns:xlink="http://www.w3.org/1999/xlink" x="0px" y="0px"
	 viewBox="0 0 512 512" style="enable-background:new 0 0 512 512;" xml:space="preserve">
<g>
	<g>
		<path style="fill:#FD6050;" d="M415.475,376.249l9.582-16.486c13.762-23.677,33.422-43.385,57.065-57.205h0
			C494.433,295.362,502,282.173,502,267.913v-34.159h-88.759l-20.065,22.053l-228.749-0.025l-30.842-31.235H10.417v0
			c0,28.484-0.089,28.49-0.185,41.839c-0.101,14.051,5.669,27.504,15.914,37.122c10.155,9.533,15.915,22.841,15.915,36.769v39.543
			L415.475,376.249z"/>
		<path style="fill:#DB4B86;" d="M193.576,378.371c-9.606-31.1-14.784-64.143-14.784-98.397c0-8.136,0.307-16.2,0.88-24.19
			l-15.245-0.002l-30.842-31.235H10.417v0c0,28.484-0.089,28.49-0.185,41.839c-0.101,14.052,5.669,27.504,15.914,37.122
			c10.155,9.533,15.915,22.841,15.915,36.768v39.543L193.576,378.371z"/>
		<path style="fill:#FDCB50;" d="M482.121,302.558L482.121,302.558C494.432,295.362,502,282.173,502,267.913v-34.159h-88.759
			l-20.065,22.053l-228.749-0.025l-30.842-31.235H10.417v0c0,28.484-0.089,28.49-0.185,41.839
			c-0.101,14.052,5.669,27.504,15.914,37.122c2.127,1.997,4.049,4.167,5.777,6.466l438.729-0.01
			C474.362,307.343,478.181,304.861,482.121,302.558z"/>
		<path style="fill:#FD8F01;" d="M178.792,279.974c0-8.136,0.307-16.2,0.88-24.19l-15.245-0.002l-30.842-31.235H10.417v0
			c0,28.484-0.089,28.49-0.185,41.839c-0.101,14.052,5.669,27.504,15.914,37.122c2.127,1.997,4.049,4.167,5.777,6.466l148.228-0.003
			C179.269,300.087,178.792,290.087,178.792,279.974z"/>
		<polygon style="fill:#93B2F4;" points="134.003,111.775 10,111.775 10,155.917 23.727,155.917 23.727,224.547 120.276,224.547 
			120.276,155.917 134.003,155.917 		"/>
		<polygon style="fill:#93B2F4;" points="178.145,255.783 178.145,153.91 393.177,153.91 393.177,255.807 		"/>
		<rect x="249.596" y="153.91" style="fill:#FD6050;" width="71.451" height="50.937"/>
		<polygon style="fill:#FD6050;" points="393.177,204.847 321.046,204.847 321.046,255.799 393.177,255.807 		"/>
		<polygon style="fill:#FD6050;" points="178.145,204.847 178.145,255.783 249.596,255.791 249.596,204.847 		"/>
		<path style="fill:#D2DCFD;" d="M501.583,367.131c-19.321-10.54-50.646-10.54-69.966,0l-0.152,0.083l-0.152,0.083
			c-19.321,10.54-50.646,10.54-69.966,0l-0.152-0.083l-0.152-0.083c-19.321-10.54-50.646-10.54-69.966,0l-0.152,0.083l-0.152,0.083
			c-19.321,10.54-50.646,10.54-69.966,0l-0.152-0.083l-0.152-0.083c-19.321-10.54-50.646-10.54-69.966,0l-0.152,0.083l-0.152,0.083
			c-19.321,10.54-50.646,10.54-69.966,0l-0.152-0.083l-0.152-0.083c-19.321-10.54-50.646-10.54-69.966,0v66.357h491.583V367.131z"/>
		<rect x="10" y="111.775" style="fill:#D2DCFD;" width="124.003" height="44.142"/>
	</g>
	<g>
		<path style="fill:#D2DCFD;" d="M87.697,119.768c-5.523,0-10-4.477-10-10V78.512c0-5.523,4.477-10,10-10s10,4.477,10,10v31.256
			C97.697,115.291,93.22,119.768,87.697,119.768z"/>
		<path style="fill:#052A75;" d="M487.168,311.191C502.485,302.239,512,285.656,512,267.913v-34.159c0-5.523-4.477-10-10-10h-88.759
			c-2.816,0-5.501,1.188-7.396,3.27l-2.668,2.932V153.91c0-5.523-4.477-10-10-10H178.145c-5.523,0-10,4.477-10,10v91.404
			l-27.443-27.793c-1.879-1.903-4.441-2.974-7.116-2.974h-3.31v-48.63h3.727c5.523,0,10-4.477,10-10v-44.142c0-5.523-4.477-10-10-10
			H10c-5.523,0-10,4.477-10,10v44.142c0,5.523,4.477,10,10,10h3.727v48.63h-3.309c-5.523,0-10,4.477-10,10
			c0,21.313-0.161,38.419-0.185,41.767c-0.121,16.78,6.83,32.995,19.069,44.484c8.108,7.612,12.759,18.356,12.759,29.478v9.795
			c-9.771,1.285-19.078,4.042-26.849,8.281C1.999,360.105,0,363.472,0,367.131v66.357c0,5.523,4.477,10,10,10h491.583
			c5.523,0,10-4.477,10-10v-66.357c0-3.659-1.999-7.026-5.211-8.779c-17.789-9.704-43.613-11.659-64.661-5.88
			C453.795,335.753,469.296,321.638,487.168,311.191z M188.145,245.785v-30.938h51.451v30.943L188.145,245.785z M259.596,214.847
			h51.451v30.951l-51.451-0.006V214.847z M259.596,194.847V163.91h51.451v30.937H259.596z M331.046,214.847h52.13v30.959
			l-52.13-0.006V214.847z M383.177,194.847h-52.13V163.91h52.13V194.847z M239.596,163.91v30.937h-51.451V163.91H239.596z
			 M20,121.775h104.003v24.142H20V121.775z M33.727,165.917h76.55v48.63l-76.55,0V165.917z M491.583,373.505v49.983H20v-49.983
			c16.559-6.435,40.44-5.634,55.158,2.394l0.322,0.176c22.302,12.166,57.242,12.167,79.53,0.008l0.317-0.173
			c16.367-8.929,44.021-8.928,60.381-0.004l0.311,0.17c22.302,12.166,57.241,12.166,79.53,0.008l0.317-0.173
			c16.367-8.929,44.021-8.928,60.369-0.011l0.322,0.176c22.302,12.167,57.242,12.167,79.542,0.001l0.306-0.167
			C451.14,367.872,475.024,367.072,491.583,373.505z M416.412,354.738l-5.274,9.074c-15.175,2.97-33.084,1.207-45.015-5.302
			l-0.289-0.158c-22.302-12.166-57.242-12.165-79.563,0.011l-0.284,0.155c-16.367,8.928-44.021,8.929-60.391-0.001l-0.301-0.165
			c-22.301-12.165-57.241-12.166-79.563,0.011l-0.284,0.155c-16.367,8.929-44.021,8.929-60.402-0.008l-0.289-0.158
			c-9.309-5.078-20.821-8.028-32.695-8.867v-9.209c0-16.623-6.951-32.682-19.07-44.059c-8.188-7.688-12.839-18.534-12.758-29.759
			c0.024-3.33,0.167-18.52,0.181-31.911h108.994l27.905,28.261c1.878,1.903,4.441,2.974,7.115,2.974l228.749,0.025c0,0,0,0,0.001,0
			c2.816,0,5.501-1.188,7.396-3.27l17.089-18.783H492v24.159c0,10.664-5.719,20.63-14.925,26.011
			C451.989,308.588,431.012,329.617,416.412,354.738z"/>
	</g>
</g>
<g>
</g>
<g>
</g>
<g>
</g>
<g>
</g>
<g>
</g>
<g>
</g>
<g>
</g>
<g>
</g>
<g>
</g>
<g>
</g>
<g>
</g>
<g>
</g>
<g>
</g>
<g>
</g>
<g>
</g>
</svg>
